<svg class="header__logo" version="1.1" xmlns="http://www.w3.org/2000/svg" xmlns:xlink="http://www.w3.org/1999/xlink" x="0px" y="0px" viewBox="0 0 213 72" style="enable-background:new 0 0 213 72;" xml:space="preserve">
    <g>
    	<g>
    		<g>
    			<path d="M43,29c-4.8-4.8-12.7-4.8-17.5,0c0,0,0,0,0,0l4.3,4.3c0,0,0,0,0,0c2.5-2.5,6.5-2.5,8.9,0c2.5,2.5,2.5,6.5,0,8.9
    				c-1.2,1.2-2.9,1.9-4.5,1.8l0,0H16l0,0l-4.1,4.1l14.8,14.8l4.1-4l-8.8-8.8h12l0,0c3.3,0.1,6.5-1.1,9-3.6
    				C47.9,41.7,47.9,33.8,43,29z"/>
    			<path d="M51.8,20.2c-9.7-9.7-25.4-9.7-35.1,0c0,0-5.2,5.2-7.1,7.1l-1.1,1.1l9.4,9.4H26l-9.2-9.2c2-2,4.1-4.1,4.1-4.1
    				c7.4-7.4,19.3-7.4,26.7,0c7.4,7.4,7.4,19.3,0,26.7c-1.4,1.4-3.1,2.6-4.8,3.5l4.4,4.4c1.6-1,3.2-2.2,4.6-3.6
    				C61.5,45.6,61.5,29.9,51.8,20.2z"/>
    		</g>
    	</g>
    	<g class="header__logo-text">
    		<path d="M70.3,48.5v-25h9.5c4.2,0,7.5,1.1,9.8,3.5c2.3,2.3,3.5,5.3,3.5,9.1c0,3.8-1.1,6.8-3.4,9.1c-2.3,2.3-5.5,3.4-9.8,3.4H70.3z
    			 M75.8,43.5h3.6c5.9,0,8-2.8,8-7.4c0-2.3-0.6-4.2-1.8-5.5c-1.2-1.3-3.3-2-6.2-2h-3.6V43.5z"/>
    		<path d="M98.5,22.9c1.7,0,3,1.3,3,3c0,1.7-1.4,3-3,3c-1.7,0-3-1.3-3-3C95.5,24.2,96.9,22.9,98.5,22.9z M95.9,48.5v-18h5.3v18H95.9
    			z"/>
    		<path d="M103.6,39.5c0-2.8,0.9-5.1,2.8-6.8c1.8-1.8,4.2-2.6,7-2.6c2.8,0,5,0.9,6.7,2.6c1.7,1.8,2.6,3.9,2.6,6.5
    			c0,0.6,0,1.2-0.1,1.7H109c0.1,2.1,2,3.5,4.8,3.5c1.7,0,3.1-0.6,4.4-1.8l3.1,3c-2.1,2.2-4.7,3.3-7.8,3.3c-3,0-5.3-0.9-7.2-2.5
    			c-1.8-1.7-2.7-4-2.7-6.8V39.5z M117.3,37.4c0-1.7-1.8-3-3.9-3c-2.3,0-4.2,1.3-4.4,3H117.3z"/>
    		<path d="M125.6,35.3h-2.4v-4.8h2.4v-6.9h5.2v6.9h4v4.8h-4v6.4c0,1.7,0.7,2.4,2.3,2.4c0.3,0,0.8,0,1.4-0.1v4.7
    			c-0.7,0.2-1.6,0.3-2.6,0.3c-4.2,0-6.2-2.1-6.2-6.4V35.3z"/>
    		<path d="M142.1,48.5l-5.7-18h4.9l3.2,10.1l3.1-10.1h4.2l3.1,10.1l3.2-10.1h4.9l-5.7,18h-4.4l-3.2-10.3l-3.2,10.3H142.1z"/>
    		<path d="M162.9,39.5c0-2.8,0.9-5.1,2.8-6.8c1.8-1.8,4.2-2.6,7-2.6c2.8,0,5,0.9,6.7,2.6c1.7,1.8,2.6,3.9,2.6,6.5
    			c0,0.6,0,1.2-0.1,1.7h-13.6c0.1,2.1,2,3.5,4.8,3.5c1.7,0,3.2-0.6,4.4-1.8l3.1,3c-2.1,2.2-4.7,3.3-7.8,3.3c-3,0-5.3-0.9-7.2-2.5
    			c-1.8-1.7-2.7-4-2.7-6.8V39.5z M176.5,37.4c0-1.7-1.8-3-3.9-3c-2.3,0-4.2,1.3-4.4,3H176.5z"/>
    		<path d="M183.4,39.5c0-2.8,0.9-5.1,2.8-6.8c1.8-1.8,4.2-2.6,7-2.6c2.8,0,5,0.9,6.7,2.6c1.7,1.8,2.6,3.9,2.6,6.5
    			c0,0.6,0,1.2-0.1,1.7h-13.6c0.1,2.1,2,3.5,4.8,3.5c1.7,0,3.1-0.6,4.4-1.8l3.1,3c-2.1,2.2-4.7,3.3-7.8,3.3c-3,0-5.3-0.9-7.2-2.5
    			c-1.8-1.7-2.7-4-2.7-6.8V39.5z M197,37.4c0-1.7-1.8-3-3.9-3c-2.3,0-4.2,1.3-4.4,3H197z"/>
    	</g>
    </g>
</svg>
