<?xml version="1.0" encoding="UTF-8"?>
<svg width="195px" height="51px" viewBox="0 0 195 51" version="1.1" xmlns="http://www.w3.org/2000/svg" xmlns:xlink="http://www.w3.org/1999/xlink">
    <!-- Generator: Sketch 50.2 (55047) - http://www.bohemiancoding.com/sketch -->
    <title>logo</title>
    <desc>Created with Sketch.</desc>
    <defs></defs>
    <g id="Page-1" stroke="none" stroke-width="1" fill-rule="evenodd">
        <g class="header__logo-graphic"  transform="translate(0, 0)">
            <path d="M35,17 C30.2,12.2 22.3,12.2 17.5,17 C17.5,17 17.5,17 17.5,17 L21.8,21.3 C21.8,21.3 21.8,21.3 21.8,21.3 C24.3,18.8 28.3,18.8 30.7,21.3 C33.2,23.8 33.2,27.8 30.7,30.2 C29.5,31.4 27.8,32.1 26.2,32 L8,32 L3.9,36.1 L18.7,50.9 L22.8,46.9 L14,38.1 L26,38.1 C29.3,38.2 32.5,37 35,34.5 C39.9,29.7 39.9,21.8 35,17 Z" id="Shape"></path>
            <path d="M43.8,8.2 C34.1,-1.5 18.4,-1.5 8.7,8.2 C8.7,8.2 3.5,13.4 1.6,15.3 L0.5,16.4 L9.9,25.8 L18,25.8 L8.8,16.6 C10.8,14.6 12.9,12.5 12.9,12.5 C20.3,5.1 32.2,5.1 39.6,12.5 C47,19.9 47,31.8 39.6,39.2 C38.2,40.6 36.5,41.8 34.8,42.7 L39.2,47.1 C40.8,46.1 42.4,44.9 43.8,43.5 C53.5,33.6 53.5,17.9 43.8,8.2 Z" id="Shape"></path>
        </g>
        <g class="header__logo-text" transform="translate(62.000000, 10.000000)">
            <path d="M0.3,26.5 L0.3,1.5 L9.8,1.5 C14,1.5 17.3,2.6 19.6,5 C21.9,7.3 23.1,10.3 23.1,14.1 C23.1,17.9 22,20.9 19.7,23.2 C17.4,25.5 14.2,26.6 9.9,26.6 L0.3,26.6 L0.3,26.5 Z M5.8,21.5 L9.4,21.5 C15.3,21.5 17.4,18.7 17.4,14.1 C17.4,11.8 16.8,9.9 15.6,8.6 C14.4,7.3 12.3,6.6 9.4,6.6 L5.8,6.6 L5.8,21.5 Z" id="Shape"></path>
            <path d="M28.5,0.9 C30.2,0.9 31.5,2.2 31.5,3.9 C31.5,5.6 30.1,6.9 28.5,6.9 C26.8,6.9 25.5,5.6 25.5,3.9 C25.5,2.2 26.9,0.9 28.5,0.9 Z M25.9,26.5 L25.9,8.5 L31.2,8.5 L31.2,26.5 L25.9,26.5 Z" id="Shape"></path>
            <path d="M33.6,17.5 C33.6,14.7 34.5,12.4 36.4,10.7 C38.2,8.9 40.6,8.1 43.4,8.1 C46.2,8.1 48.4,9 50.1,10.7 C51.8,12.5 52.7,14.6 52.7,17.2 C52.7,17.8 52.7,18.4 52.6,18.9 L39,18.9 C39.1,21 41,22.4 43.8,22.4 C45.5,22.4 46.9,21.8 48.2,20.6 L51.3,23.6 C49.2,25.8 46.6,26.9 43.5,26.9 C40.5,26.9 38.2,26 36.3,24.4 C34.5,22.7 33.6,20.4 33.6,17.6 L33.6,17.5 Z M47.3,15.4 C47.3,13.7 45.5,12.4 43.4,12.4 C41.1,12.4 39.2,13.7 39,15.4 L47.3,15.4 Z" id="Shape"></path>
            <path d="M55.6,13.3 L53.2,13.3 L53.2,8.5 L55.6,8.5 L55.6,1.6 L60.8,1.6 L60.8,8.5 L64.8,8.5 L64.8,13.3 L60.8,13.3 L60.8,19.7 C60.8,21.4 61.5,22.1 63.1,22.1 C63.4,22.1 63.9,22.1 64.5,22 L64.5,26.7 C63.8,26.9 62.9,27 61.9,27 C57.7,27 55.7,24.9 55.7,20.6 L55.7,13.3 L55.6,13.3 Z" id="Shape"></path>
            <polygon id="Shape" points="72.1 26.5 66.4 8.5 71.3 8.5 74.5 18.6 77.6 8.5 81.8 8.5 84.9 18.6 88.1 8.5 93 8.5 87.3 26.5 82.9 26.5 79.7 16.2 76.5 26.5"></polygon>
            <path d="M92.9,17.5 C92.9,14.7 93.8,12.4 95.7,10.7 C97.5,8.9 99.9,8.1 102.7,8.1 C105.5,8.1 107.7,9 109.4,10.7 C111.1,12.5 112,14.6 112,17.2 C112,17.8 112,18.4 111.9,18.9 L98.3,18.9 C98.4,21 100.3,22.4 103.1,22.4 C104.8,22.4 106.3,21.8 107.5,20.6 L110.6,23.6 C108.5,25.8 105.9,26.9 102.8,26.9 C99.8,26.9 97.5,26 95.6,24.4 C93.8,22.7 92.9,20.4 92.9,17.6 L92.9,17.5 Z M106.5,15.4 C106.5,13.7 104.7,12.4 102.6,12.4 C100.3,12.4 98.4,13.7 98.2,15.4 L106.5,15.4 Z" id="Shape"></path>
            <path d="M113.4,17.5 C113.4,14.7 114.3,12.4 116.2,10.7 C118,8.9 120.4,8.1 123.2,8.1 C126,8.1 128.2,9 129.9,10.7 C131.6,12.5 132.5,14.6 132.5,17.2 C132.5,17.8 132.5,18.4 132.4,18.9 L118.8,18.9 C118.9,21 120.8,22.4 123.6,22.4 C125.3,22.4 126.7,21.8 128,20.6 L131.1,23.6 C129,25.8 126.4,26.9 123.3,26.9 C120.3,26.9 118,26 116.1,24.4 C114.3,22.7 113.4,20.4 113.4,17.6 L113.4,17.5 Z M127,15.4 C127,13.7 125.2,12.4 123.1,12.4 C120.8,12.4 118.9,13.7 118.7,15.4 L127,15.4 Z" id="Shape"></path>
        </g>
    </g>
</svg>